<?xml version="1.0" encoding="UTF-8"?>
<svg id="svg3794" width="30mm" height="24mm" version="1.1" viewBox="0 0 30 24" xmlns="http://www.w3.org/2000/svg" xmlns:xlink="http://www.w3.org/1999/xlink">
   <defs id="defs3791">
      <linearGradient id="linearGradient49346-1">
         <stop id="stop49342-8" stop-color="#243538" offset="0"/>
         <stop id="stop49344-7" stop-color="#1a2628" offset="1"/>
      </linearGradient>
      <radialGradient id="radialGradient2019" cx="12.61635" cy="4.578199" r="5.022827" gradientTransform="matrix(1 0 0 .212488 0 -.8851432)" gradientUnits="userSpaceOnUse">
         <stop id="stop5712" stop-color="#f1f4f4" offset="0"/>
         <stop id="stop5714" stop-color="#02ae8e" offset="1"/>
      </radialGradient>
      <filter id="filter59363-7" x="-.09403903" y="-.4670266" width="1.188078" height="1.934053" color-interpolation-filters="sRGB">
         <feGaussianBlur id="feGaussianBlur59361-5" result="blur" stdDeviation="0.7 0.7"/>
      </filter>
      <radialGradient id="radialGradient2275" cx="12.33701" cy="97.32289" r="5.022827" gradientTransform="matrix(1 0 0 .212488 0 -.8851432)" gradientUnits="userSpaceOnUse">
         <stop id="stop14920" stop-color="#f0f4f3" offset="0"/>
         <stop id="stop14922" stop-color="#03ae8f" offset="1"/>
      </radialGradient>
      <filter id="filter59363-2-3" x="-.09403903" y="-.4670266" width="1.188078" height="1.934053" color-interpolation-filters="sRGB">
         <feGaussianBlur id="feGaussianBlur59361-6-5" result="blur" stdDeviation="0.7 0.7"/>
      </filter>
      <radialGradient id="radialGradient2998" cx="12.56284" cy="1.90877" r="10.18874" gradientTransform="matrix(.6876484 0 0 .1290215 1.355561 -24.79087)" gradientUnits="userSpaceOnUse">
         <stop id="stop19035" stop-color="#f0f4f4" offset="0"/>
         <stop id="stop19037" stop-color="#02ae8f" offset="1"/>
      </radialGradient>
      <filter id="filter103887-70-9" x="-.1472967" y="-.429039" width="1.294593" height="1.858078" color-interpolation-filters="sRGB">
         <feGaussianBlur id="feGaussianBlur103885-9-12" result="blur" stdDeviation="0.86 0.47"/>
      </filter>
      <radialGradient id="radialGradient2822" cx="12.46657" cy=".02411819" r="10.18874" gradientTransform="matrix(.6876484 0 0 .1290215 1.355561 -24.79087)" gradientUnits="userSpaceOnUse">
         <stop id="stop24087" stop-color="#f2f4f4" offset="0"/>
         <stop id="stop24089" stop-color="#04af8f" offset="1"/>
      </radialGradient>
      <filter id="filter103887-7-2-7" x="-.1472967" y="-.429039" width="1.294593" height="1.858078" color-interpolation-filters="sRGB">
         <feGaussianBlur id="feGaussianBlur103885-8-6-0" result="blur" stdDeviation="0.86 0.47"/>
      </filter>
      <linearGradient id="linearGradient3956" x1="-112.6994" x2="-18.2335" y1="143.0869" y2="214.2257" gradientTransform="matrix(.2478634 0 0 .2478634 34.29089 -3.876816)" gradientUnits="userSpaceOnUse" xlink:href="#linearGradient49346-1"/>
      <radialGradient id="radialGradient3483" cx="37.46475" cy="-1.92963" r="11.31473" gradientTransform="matrix(1.840222 -.00130308 .0005022903 .7093297 -51.20104 37.49428)" gradientUnits="userSpaceOnUse">
         <stop id="stop33766" stop-color="#eff4f3" offset="0"/>
         <stop id="stop33768" stop-color="#05af90" offset="1"/>
      </radialGradient>
      <filter id="filter1299-6" x="-.01986321" y="-.02639398" width="1.039726" height="1.052788" color-interpolation-filters="sRGB">
         <feGaussianBlur id="feGaussianBlur1297-2" result="blur" stdDeviation="0.15 0.15"/>
      </filter>
      <filter id="filter110650-3-2-6-9" x="-.03827618" y="-.05053776" width="1.076552" height="1.101076" color-interpolation-filters="sRGB">
         <feGaussianBlur id="feGaussianBlur110648-9-7-1-1" result="blur" stdDeviation="0.36 0.37"/>
      </filter>
      <linearGradient id="linearGradient3605" x1="-143.9427" x2="-105.7356" y1="-52.29361" y2="-2.126861" gradientTransform="matrix(.2645833 0 0 .2645833 40.28148 15.42554)" gradientUnits="userSpaceOnUse">
         <stop id="stop110956" stop-color="#4b5856" offset="0"/>
         <stop id="stop110958" stop-color="#808080" stop-opacity="0" offset="1"/>
      </linearGradient>
      <filter id="filter111941-8-6-5-1" x="-.03827443" y="-.05053776" width="1.076549" height="1.101076" color-interpolation-filters="sRGB">
         <feGaussianBlur id="feGaussianBlur111939-5-0-9-5" result="blur" stdDeviation="0.36 0.37"/>
      </filter>
      <linearGradient id="linearGradient3671" x1="-11.91663" x2="-29.62024" y1="11.94691" y2="-13.15147" gradientTransform="translate(38.57066,9.023538)" gradientUnits="userSpaceOnUse">
         <stop id="stop112183" stop-color="#1f2322" offset="0"/>
         <stop id="stop112185" stop-color="#3b3b3b" stop-opacity="0" offset="1"/>
      </linearGradient>
      <radialGradient id="radialGradient59203-7" cx="30.47977" cy="-1.123974" r="5.022827" gradientTransform="matrix(1 0 0 .212488 0 -.8851432)" gradientUnits="userSpaceOnUse">
         <stop id="stop42786" stop-color="#f0f4f3" offset="0"/>
         <stop id="stop42788" stop-color="#04af8f" offset="1"/>
      </radialGradient>
      <filter id="filter59363-73" x="-.1672365" y="-.7870397" width="1.334473" height="2.574079" color-interpolation-filters="sRGB">
         <feGaussianBlur id="feGaussianBlur59361-65" result="blur" stdDeviation="0.7 0.7"/>
      </filter>
      <radialGradient id="radialGradient59203-6-3" cx="30.47977" cy="-1.123974" r="5.022827" gradientTransform="matrix(1 0 0 .212488 0 -.8851432)" gradientUnits="userSpaceOnUse">
         <stop id="stop39720" stop-color="#f1f4f4" offset="0"/>
         <stop id="stop39722" stop-color="#05af90" offset="1"/>
      </radialGradient>
      <filter id="filter59363-2-8" x="-.1672365" y="-.7870397" width="1.334473" height="2.574079" color-interpolation-filters="sRGB">
         <feGaussianBlur id="feGaussianBlur59361-6-1" result="blur" stdDeviation="0.7 0.7"/>
      </filter>
      <clipPath id="clipPath2412">
         <rect id="rect2414" x="3.292683" y="3.183647" width="23.41464" height="17.63271" rx="2.000001" ry="2.000001" fill="url(#linearGradient2416)" stop-color="#000000" style="-inkscape-stroke:none;font-variation-settings:normal"/>
      </clipPath>
      <linearGradient id="linearGradient2416" x1="-112.6994" x2="-18.2335" y1="143.0869" y2="214.2257" gradientTransform="matrix(.2478634 0 0 .2478634 31.22674 -32.28238)" gradientUnits="userSpaceOnUse" xlink:href="#linearGradient49346-1"/>
      <filter id="filter36771-4-36" x="-.07110584" y="-.08101082" width="1.142212" height="1.162022" color-interpolation-filters="sRGB">
         <feGaussianBlur id="feGaussianBlur36769-4-75" result="blur" stdDeviation="1 1"/>
      </filter>
      <filter id="filter36749-3-3" x="-.07110584" y="-.08101082" width="1.142212" height="1.162022" color-interpolation-filters="sRGB">
         <feGaussianBlur id="feGaussianBlur36747-0-56" result="blur" stdDeviation="1 1"/>
      </filter>
   </defs>
   <g id="layer1">
      <g id="g1390" class="bg-shadow" transform="matrix(.490105 0 0 .7870676 .302599 .09252869)">
         <rect id="rect17215" transform="matrix(1.529978 0 0 .8542148 17.32542 -20.62564)" x="-9.026199" y="26.25636" width="33.7525" height="29.62567" rx="2.667203" ry="2.974755" fill="#0a1010" fill-opacity=".7" filter="url(#filter36771-4-36)" stop-color="#000000" stroke-width=".218165" style="-inkscape-stroke:none"/>
         <rect id="rect17217" transform="matrix(1.481092 0 0 .8401016 19.9564 -18.45784)" x="-9.026199" y="26.25636" width="33.7525" height="29.62567" rx="2.755238" ry="3.024728" fill="#c2d6d6" fill-opacity=".202825" filter="url(#filter36749-3-3)" stop-color="#000000" stroke-width=".218165" style="-inkscape-stroke:none"/>
         <rect id="rect17221" x="4.838455" y="3.125846" width="50.34114" height="23.99679" rx="4.080761" ry="2.541079" fill="#1a1a1a" stop-color="#000000" stroke-width=".239793" style="-inkscape-stroke:none"/>
      </g>
      <ellipse id="path86745-2" transform="matrix(.9368067 0 0 .8812818 3.257021 3.319224)" cx="12.5" cy=".4" rx="8.932461" ry="1.798613" fill="url(#radialGradient2019)" filter="url(#filter59363-7)" stop-color="#000000" style="-inkscape-stroke:none;font-variation-settings:normal"/>
      <ellipse id="path86745-6-2" transform="matrix(.9368067 0 0 .8812818 3.257021 3.319224)" cx="12.5" cy="19.3" rx="8.932461" ry="1.798613" fill="url(#radialGradient2275)" filter="url(#filter59363-2-3)" stop-color="#000000" style="-inkscape-stroke:none;font-variation-settings:normal"/>
      <ellipse id="path86745-2-3-8" transform="matrix(0 .8812818 -.9368067 0 3.257021 3.319224)" cx="10" cy="-24.5" rx="7.006267" ry="1.314566" fill="url(#radialGradient2998)" filter="url(#filter103887-70-9)" stop-color="#000000" style="-inkscape-stroke:none;font-variation-settings:normal"/>
      <ellipse id="path86745-2-3-4-9" transform="matrix(0 .8812818 -.9368067 0 -19.44094 3.319224)" cx="10" cy="-24.8" rx="7.006267" ry="1.314566" fill="url(#radialGradient2822)" filter="url(#filter103887-7-2-7)" stop-color="#000000" style="-inkscape-stroke:none;font-variation-settings:normal"/>
      <g id="g1893" clip-path="url(#clipPath2412)">
         <g id="main-button" transform="translate(-3.064155 -28.40556)">
            <rect id="rect17221-2-1-2-6" x="6.356838" y="31.58921" width="23.41464" height="17.63271" rx="2.000001" ry="2.000001" fill="url(#linearGradient3956)" stop-color="#000000" style="-inkscape-stroke:none;font-variation-settings:normal"/>
            <path id="rect17221-2-9-1" d="m10.1711 33.58582c-.6475786 0-1.168922.487892-1.168922 1.093991v11.4515c0 .606097.521343 1.093989 1.168922 1.093989h15.78612c.64757 0 1.16892-.487892 1.16892-1.093989v-11.4515c0-.606099-.52135-1.093991-1.16892-1.093991z" fill="url(#radialGradient3483)" filter="url(#filter1299-6)" stop-color="#000000" style="-inkscape-stroke:none;font-variation-settings:normal"/>
         </g>
         <path id="top-shadow" transform="matrix(1.007585 0 0 1.00095 -.1991743 -.02340473)" d="m5.078971 3.122417c-1.037984 0-1.873271.835287-1.873271 1.87327v14.98927c0 .25132.05109.489908.140044.708484l1.03973-.800468c-.0079-.05502-.01705-.109722-.01705-.166915v-14.47147c0-.665773.555398-1.201994 1.244886-1.201994h18.60455c.207113 0 .399013.05326.570508.13901l.990121-.761711c-.29473-.19306-.64608-.307474-1.026294-.307474z" fill="url(#linearGradient3605)" filter="url(#filter110650-3-2-6-9)" stop-color="#000000" style="-inkscape-stroke:none;font-variation-settings:normal"/>
         <path id="bottom-shadow" d="m26.51927 3.487502-1.040247.800468c.0079.05503.01757.109716.01757.166915v14.47147c0 .665771-.555397 1.201992-1.244885 1.201992h-18.60455c-.207299 0-.399422-.05312-.571027-.139009l-.990637.762224c.294804.19321.646957.30696 1.02733.30696h19.67322c1.037982 0 1.87327-.835288 1.87327-1.873269v-14.98927c0-.251331-.05108-.4899-.140042-.708484z" fill="url(#linearGradient3671)" filter="url(#filter111941-8-6-5-1)" stop-color="#000000" style="-inkscape-stroke:none;font-variation-settings:normal"/>
      </g>
      <ellipse id="path59195-6" transform="matrix(1.173742 0 0 .8164125 -20.7754 3.832024)" cx="30.47977" cy="-1.123974" rx="5.022827" ry="1.06729" fill="url(#radialGradient59203-7)" filter="url(#filter59363-73)" stop-color="#000000"/>
      <ellipse id="path59195-1-2" transform="matrix(1.173742 0 0 .8164125 -20.7754 22.16522)" cx="30.47977" cy="-1.123974" rx="5.022827" ry="1.06729" fill="url(#radialGradient59203-6-3)" filter="url(#filter59363-2-8)" stop-color="#000000"/>
   </g>
</svg>
